<?xml version="1.0" encoding="UTF-8"?>
<svg width="450px" height="310px" viewBox="0 0 450 310" version="1.1" xmlns="http://www.w3.org/2000/svg" xmlns:xlink="http://www.w3.org/1999/xlink">
    <!-- Generator: Sketch 58 (84663) - https://sketch.com -->
    <title>rangefinder</title>
    <desc>Created with Sketch.</desc>
    <g id="rangefinder" stroke="none" stroke-width="1" fill="none" fill-rule="evenodd" stroke-linecap="square">
        <g id="frame" transform="translate(38.000000, 22.000000)" stroke="#F7C600" stroke-width="2">
            <g id="corner">
                <path d="M0.54,26.46 L0.54,0.54" id="Line-2"></path>
                <path d="M0.54,0.54 L26.46,0.54" id="Line-2-Copy"></path>
            </g>
            <g id="corner-copy-3" transform="translate(13.500000, 252.500000) scale(1, -1) translate(-13.500000, -252.500000) translate(0.000000, 239.000000)">
                <path d="M0.54,26.46 L0.54,0.54" id="Line-2"></path>
                <path d="M0.54,0.54 L26.46,0.54" id="Line-2-Copy"></path>
            </g>
            <g id="corner-copy" transform="translate(361.500000, 13.500000) scale(-1, 1) translate(-361.500000, -13.500000) translate(348.000000, 0.000000)">
                <path d="M0.54,26.46 L0.54,0.54" id="Line-2"></path>
                <path d="M0.54,0.54 L26.46,0.54" id="Line-2-Copy"></path>
            </g>
            <g id="corner-copy-2" transform="translate(361.500000, 252.500000) scale(-1, -1) translate(-361.500000, -252.500000) translate(348.000000, 239.000000)">
                <path d="M0.54,26.46 L0.54,0.54" id="Line-2"></path>
                <path d="M0.54,0.54 L26.46,0.54" id="Line-2-Copy"></path>
            </g>
        </g>
    </g>
</svg>