<?xml version="1.0" encoding="UTF-8"?>
<svg width="31px" height="31px" viewBox="0 0 31 31" version="1.1" xmlns="http://www.w3.org/2000/svg" xmlns:xlink="http://www.w3.org/1999/xlink">
    <!-- Generator: Sketch 58 (84663) - https://sketch.com -->
    <title>search icon</title>
    <desc>Created with Sketch.</desc>
    <defs>
        <path d="M8.57142857,2.85714286 C11.7273414,2.85714286 14.2857143,5.41551572 14.2857143,8.57142857 C14.2857143,9.89206085 13.8377147,11.1080572 13.0854004,12.0757327 L16.9336477,15.9234952 C17.2125936,16.2024411 17.2125936,16.6547018 16.9336477,16.9336477 C16.6825964,17.184699 16.2911601,17.2098042 16.0120317,17.0089631 L15.9234952,16.9336477 L12.0757327,13.0854004 C11.1080572,13.8377147 9.89206085,14.2857143 8.57142857,14.2857143 C5.41551572,14.2857143 2.85714286,11.7273414 2.85714286,8.57142857 C2.85714286,5.41551572 5.41551572,2.85714286 8.57142857,2.85714286 Z M8.57142857,4.28571429 C6.20449393,4.28571429 4.28571429,6.20449393 4.28571429,8.57142857 C4.28571429,10.9383632 6.20449393,12.8571429 8.57142857,12.8571429 C10.9383632,12.8571429 12.8571429,10.9383632 12.8571429,8.57142857 C12.8571429,6.20449393 10.9383632,4.28571429 8.57142857,4.28571429 Z" id="path-1"></path>
    </defs>
    <g id="search-icon" stroke="none" stroke-width="1" fill="none" fill-rule="evenodd" opacity="0.5">
        <g id="Icons-/-Search" transform="translate(5.000000, 6.000000)">
            <mask id="mask-2" fill="white">
                <use xlink:href="#path-1"></use>
            </mask>
            <use id="Icon" fill="#000000" fill-rule="nonzero" xlink:href="#path-1"></use>
            <g id="Colors-/-White" mask="url(#mask-2)" fill="#FFFFFF" fill-rule="evenodd">
                <rect id="Color" x="0" y="0" width="19.7142857" height="19.7142857"></rect>
            </g>
        </g>
    </g>
</svg>